<svg width="247" height="30" viewBox="0 0 247 30" fill="none" xmlns="http://www.w3.org/2000/svg">
<g id="ALPHA Cast">
<path d="M0.799988 29L13.4 0.999975H18.52L31.16 29H25.72L14.88 3.75998H16.96L6.15999 29H0.799988ZM6.59999 22.52L7.99999 18.44H23.12L24.52 22.52H6.59999Z" fill="#111111"/>
<path d="M34.7209 29V0.999975H39.9209V24.6H54.5609V29H34.7209Z" fill="#111111"/>
<path d="M58.6662 29V0.999975H70.1862C72.6662 0.999975 74.7862 1.39998 76.5462 2.19998C78.3329 2.99998 79.7062 4.14664 80.6662 5.63997C81.6262 7.13331 82.1062 8.90664 82.1062 10.96C82.1062 13.0133 81.6262 14.7866 80.6662 16.28C79.7062 17.7733 78.3329 18.92 76.5462 19.72C74.7862 20.52 72.6662 20.92 70.1862 20.92H61.5462L63.8662 18.48V29H58.6662ZM63.8662 19.04L61.5462 16.52H69.9462C72.2396 16.52 73.9596 16.04 75.1062 15.08C76.2796 14.0933 76.8662 12.72 76.8662 10.96C76.8662 9.17331 76.2796 7.79998 75.1062 6.83998C73.9596 5.87998 72.2396 5.39998 69.9462 5.39998H61.5462L63.8662 2.83998V19.04Z" fill="#111111"/>
<path d="M106.979 0.999975H112.179V29H106.979V0.999975ZM92.499 29H87.299V0.999975H92.499V29ZM107.379 17H92.0591V12.56H107.379V17Z" fill="#111111"/>
<path d="M115.722 29L128.322 0.999975H133.442L146.082 29H140.642L129.802 3.75998H131.882L121.082 29H115.722ZM121.522 22.52L122.922 18.44H138.042L139.442 22.52H121.522Z" fill="#111111"/>
<path d="M173.657 29.4C171.524 29.4 169.537 29.0533 167.697 28.36C165.884 27.64 164.297 26.64 162.937 25.36C161.604 24.0533 160.564 22.52 159.817 20.76C159.071 19 158.697 17.08 158.697 15C158.697 12.92 159.071 11 159.817 9.23998C160.564 7.47998 161.617 5.95998 162.977 4.67998C164.337 3.37331 165.924 2.37331 167.737 1.67998C169.551 0.959975 171.537 0.599976 173.697 0.599976C175.991 0.599976 178.084 0.999976 179.977 1.79998C181.871 2.57331 183.471 3.73331 184.777 5.27997L181.417 8.43998C180.404 7.34664 179.271 6.53331 178.017 5.99998C176.764 5.43998 175.404 5.15998 173.937 5.15998C172.471 5.15998 171.124 5.39998 169.897 5.87998C168.697 6.35998 167.644 7.03998 166.737 7.91998C165.857 8.79998 165.164 9.83998 164.657 11.04C164.177 12.24 163.937 13.56 163.937 15C163.937 16.44 164.177 17.76 164.657 18.96C165.164 20.16 165.857 21.2 166.737 22.08C167.644 22.96 168.697 23.64 169.897 24.12C171.124 24.6 172.471 24.84 173.937 24.84C175.404 24.84 176.764 24.5733 178.017 24.04C179.271 23.48 180.404 22.64 181.417 21.52L184.777 24.72C183.471 26.24 181.871 27.4 179.977 28.2C178.084 29 175.977 29.4 173.657 29.4Z" fill="#111111"/>
<path d="M202.245 29V24.68L201.965 23.76V16.2C201.965 14.7333 201.525 13.6 200.645 12.8C199.765 11.9733 198.431 11.56 196.645 11.56C195.445 11.56 194.258 11.7466 193.085 12.12C191.938 12.4933 190.965 13.0133 190.165 13.68L188.205 10.04C189.351 9.15998 190.711 8.50664 192.285 8.07998C193.885 7.62664 195.538 7.39998 197.245 7.39998C200.338 7.39998 202.725 8.14664 204.405 9.63998C206.111 11.1066 206.965 13.3866 206.965 16.48V29H202.245ZM195.525 29.28C193.925 29.28 192.525 29.0133 191.325 28.48C190.125 27.92 189.191 27.16 188.525 26.2C187.885 25.2133 187.565 24.1066 187.565 22.88C187.565 21.68 187.845 20.6 188.405 19.64C188.991 18.68 189.938 17.92 191.245 17.36C192.551 16.8 194.285 16.52 196.445 16.52H202.645V19.84H196.805C195.098 19.84 193.951 20.12 193.365 20.68C192.778 21.2133 192.485 21.88 192.485 22.68C192.485 23.5866 192.845 24.3066 193.565 24.84C194.285 25.3733 195.285 25.64 196.565 25.64C197.791 25.64 198.885 25.36 199.845 24.8C200.831 24.24 201.538 23.4133 201.965 22.32L202.805 25.32C202.325 26.5733 201.458 27.5466 200.205 28.24C198.978 28.9333 197.418 29.28 195.525 29.28Z" fill="#111111"/>
<path d="M219.982 29.28C218.195 29.28 216.475 29.0533 214.822 28.6C213.195 28.12 211.902 27.5466 210.942 26.88L212.862 23.08C213.822 23.6933 214.968 24.2 216.302 24.6C217.635 25 218.968 25.2 220.302 25.2C221.875 25.2 223.008 24.9866 223.702 24.56C224.422 24.1333 224.782 23.56 224.782 22.84C224.782 22.2533 224.542 21.8133 224.062 21.52C223.582 21.2 222.955 20.96 222.182 20.8C221.408 20.64 220.542 20.4933 219.582 20.36C218.648 20.2266 217.702 20.0533 216.742 19.84C215.808 19.6 214.955 19.2666 214.182 18.84C213.408 18.3866 212.782 17.7866 212.302 17.04C211.822 16.2933 211.582 15.3066 211.582 14.08C211.582 12.72 211.968 11.5466 212.742 10.56C213.515 9.54664 214.595 8.77331 215.982 8.23997C217.395 7.67998 219.062 7.39998 220.982 7.39998C222.422 7.39998 223.875 7.55998 225.342 7.87998C226.808 8.19998 228.022 8.65331 228.982 9.23998L227.062 13.04C226.048 12.4266 225.022 12.0133 223.982 11.8C222.968 11.56 221.955 11.44 220.942 11.44C219.422 11.44 218.288 11.6666 217.542 12.12C216.822 12.5733 216.462 13.1466 216.462 13.84C216.462 14.48 216.702 14.96 217.182 15.28C217.662 15.6 218.288 15.8533 219.062 16.04C219.835 16.2266 220.688 16.3866 221.622 16.52C222.582 16.6266 223.528 16.8 224.462 17.04C225.395 17.28 226.248 17.6133 227.022 18.04C227.822 18.44 228.462 19.0133 228.942 19.76C229.422 20.5066 229.662 21.48 229.662 22.68C229.662 24.0133 229.262 25.1733 228.462 26.16C227.688 27.1466 226.582 27.92 225.142 28.48C223.702 29.0133 221.982 29.28 219.982 29.28Z" fill="#111111"/>
<path d="M242.007 29.28C239.661 29.28 237.847 28.68 236.567 27.48C235.287 26.2533 234.647 24.4533 234.647 22.08V2.91998H239.647V21.96C239.647 22.9733 239.901 23.76 240.407 24.32C240.941 24.88 241.674 25.16 242.607 25.16C243.727 25.16 244.661 24.8666 245.407 24.28L246.807 27.84C246.221 28.32 245.501 28.68 244.647 28.92C243.794 29.16 242.914 29.28 242.007 29.28ZM231.127 11.8V7.79998H245.367V11.8H231.127Z" fill="#111111"/>
</g>
</svg>
