<svg width="34" height="34" viewBox="0 0 34 34" fill="none" xmlns="http://www.w3.org/2000/svg">
<path d="M16.9999 0.333313C7.78325 0.333313 0.333252 7.78331 0.333252 17C0.333252 26.2166 7.78325 33.6666 16.9999 33.6666C26.2166 33.6666 33.6666 26.2166 33.6666 17C33.6666 7.78331 26.2166 0.333313 16.9999 0.333313ZM16.9999 30.3333C9.64992 30.3333 3.66659 24.35 3.66659 17C3.66659 9.64998 9.64992 3.66665 16.9999 3.66665C24.3499 3.66665 30.3333 9.64998 30.3333 17C30.3333 24.35 24.3499 30.3333 16.9999 30.3333ZM22.9833 8.66665L16.9999 14.65L11.0166 8.66665L8.66658 11.0166L14.6499 17L8.66658 22.9833L11.0166 25.3333L16.9999 19.35L22.9833 25.3333L25.3333 22.9833L19.3499 17L25.3333 11.0166L22.9833 8.66665Z" fill="#FF5050"/>
</svg>
