<svg width="34" height="34" viewBox="0 0 34 34" fill="none" xmlns="http://www.w3.org/2000/svg">
<path d="M15.3333 22H18.6666V25.3333H15.3333V22ZM15.3333 8.66665H18.6666V18.6666H15.3333V8.66665ZM16.9833 0.333313C7.78325 0.333313 0.333252 7.79998 0.333252 17C0.333252 26.2 7.78325 33.6666 16.9833 33.6666C26.1999 33.6666 33.6666 26.2 33.6666 17C33.6666 7.79998 26.1999 0.333313 16.9833 0.333313ZM16.9999 30.3333C9.63325 30.3333 3.66659 24.3666 3.66659 17C3.66659 9.63331 9.63325 3.66665 16.9999 3.66665C24.3666 3.66665 30.3333 9.63331 30.3333 17C30.3333 24.3666 24.3666 30.3333 16.9999 30.3333Z" fill="#F6AE2D"/>
</svg>
