<svg width="20" height="21" viewBox="0 0 20 21" fill="none" xmlns="http://www.w3.org/2000/svg">
<g id="More vert" clip-path="url(#clip0_37_4919)">
<path id="Vector" d="M9.99998 7.16671C10.9166 7.16671 11.6666 6.41671 11.6666 5.50004C11.6666 4.58337 10.9166 3.83337 9.99998 3.83337C9.08331 3.83337 8.33331 4.58337 8.33331 5.50004C8.33331 6.41671 9.08331 7.16671 9.99998 7.16671ZM9.99998 8.83337C9.08331 8.83337 8.33331 9.58337 8.33331 10.5C8.33331 11.4167 9.08331 12.1667 9.99998 12.1667C10.9166 12.1667 11.6666 11.4167 11.6666 10.5C11.6666 9.58337 10.9166 8.83337 9.99998 8.83337ZM9.99998 13.8334C9.08331 13.8334 8.33331 14.5834 8.33331 15.5C8.33331 16.4167 9.08331 17.1667 9.99998 17.1667C10.9166 17.1667 11.6666 16.4167 11.6666 15.5C11.6666 14.5834 10.9166 13.8334 9.99998 13.8334Z" fill="currentColor"/>
</g>
<defs>
<clipPath id="clip0_37_4919">
<rect width="20" height="20" fill="white" transform="translate(0 0.5)"/>
</clipPath>
</defs>
</svg>
