<svg width="34" height="34" viewBox="0 0 34 34" fill="none" xmlns="http://www.w3.org/2000/svg">
<path d="M16.9999 0.333313C7.79992 0.333313 0.333252 7.79998 0.333252 17C0.333252 26.2 7.79992 33.6666 16.9999 33.6666C26.1999 33.6666 33.6666 26.2 33.6666 17C33.6666 7.79998 26.1999 0.333313 16.9999 0.333313ZM16.9999 30.3333C9.64992 30.3333 3.66659 24.35 3.66659 17C3.66659 9.64998 9.64992 3.66665 16.9999 3.66665C24.3499 3.66665 30.3333 9.64998 30.3333 17C30.3333 24.35 24.3499 30.3333 16.9999 30.3333ZM24.6499 9.63331L13.6666 20.6166L9.34992 16.3166L6.99992 18.6666L13.6666 25.3333L26.9999 12L24.6499 9.63331Z" fill="#4CAF50"/>
</svg>
